<?xml version="1.0" encoding="UTF-8"?>
<!DOCTYPE svg PUBLIC "-//W3C//DTD SVG 1.1//EN" "http://www.w3.org/Graphics/SVG/1.1/DTD/svg11.dtd">
<svg version="1.1" xmlns="http://www.w3.org/2000/svg" xmlns:xlink="http://www.w3.org/1999/xlink" x="0" y="0" width="477" height="468" viewBox="0, 0, 477, 468">
  <defs>
    <clipPath id="Clip_1">
      <path d="M0.06,0.773 L476.865,0.773 L476.865,467.94 L0.06,467.94 z"/>
    </clipPath>
  </defs>
  <g id="Layer_1">
    <g clip-path="url(#Clip_1)">
      <path d="M148.437,461.19 C147.677,465.314 145.283,467.723 141.036,467.98 C136.82,468.235 134.265,466.012 132.592,462.283 C123.464,441.935 120.771,420.502 121.811,398.457 C122.656,380.535 126.579,363.243 133.016,346.523 C133.939,344.125 133.723,342.879 131.327,341.432 C108.412,327.589 90.785,308.702 78.305,285.035 C77.214,282.966 75.897,281.944 73.597,281.232 C58.998,276.709 52.652,261.814 59.286,248.07 C60.007,246.576 61.185,245.258 61.678,243.708 C62.555,240.949 62.771,238.577 58.529,238.32 C33.746,236.817 24.634,218.494 25.541,196.939 C25.709,192.963 26.103,188.982 27.179,185.091 C30.891,171.681 40.158,164.752 54.038,165.602 C57.648,165.823 58.709,164.976 59.338,161.307 C65.596,124.807 78.45,91.099 102.69,62.497 C129.591,30.756 164.164,12.147 204.678,4.406 C259.241,-6.019 308.835,6.082 352.879,39.549 C385.75,64.525 404.364,99.01 415.09,138.206 C417.241,146.064 419.109,154 420.177,162.082 C420.568,165.036 421.733,165.772 424.689,165.638 C440.102,164.938 449.08,171.782 452.587,186.868 C454.773,196.273 454.653,205.759 451.815,215.003 C447.484,229.112 437.671,236.796 423.03,237.97 C419.089,238.286 417.617,239.569 416.647,243.567 C409.79,271.854 397.401,297.316 376.963,318.445 C368.591,327.099 359.318,334.667 348.934,340.782 C345.962,342.532 345.019,343.84 346.616,347.586 C361.825,383.254 362.802,419.495 350.169,456.125 C349.52,458.007 348.737,459.843 347.997,461.693 C346.531,465.363 344.199,468.036 339.916,467.968 C335.476,467.897 332.882,465.427 331.868,461.185 C330.495,458.901 331.172,456.671 332.102,454.484 C338.323,439.857 340.911,424.34 341.503,408.7 C342.164,391.265 338.705,374.266 331.864,357.572 C330.488,359.191 330.724,360.858 330.407,362.321 C324.952,387.557 313.022,408.334 289.64,421.094 C279.581,426.583 268.727,430.047 257.373,431.125 C238.204,432.944 219.122,432.856 200.653,425.992 C172.29,415.45 155.809,394.836 149.109,365.8 C148.697,364.015 148.386,362.207 148.053,360.404 C147.717,358.59 147.876,356.76 147.86,355.294 C146.162,362.666 143.318,370.087 141.988,377.897 C137.58,403.78 137.703,429.297 148.002,454.016 C148.972,456.345 149.891,458.702 148.437,461.19" fill="#6E4100"/>
      <path d="M148.437,461.19 C148.363,459.018 147.852,456.993 147.003,454.953 C132.864,420.96 135.788,387.082 148.251,353.194 C149.092,357.683 149.736,362.219 150.805,366.653 C159.486,402.678 185.207,425.364 221.945,429.636 C238.29,431.536 254.568,431.564 270.51,427.118 C304.036,417.769 322.391,394.692 329.127,361.363 C329.64,358.828 330.062,356.275 330.519,353.768 C332.536,353.769 332.46,355.325 332.829,356.232 C346.251,389.242 346.15,422.323 333.122,455.407 C332.371,457.316 331.993,459.201 331.869,461.189 C329.996,460.238 327.976,460.475 325.992,460.475 C268.765,460.47 211.537,460.47 154.31,460.476 C152.327,460.476 150.305,460.221 148.437,461.19" fill="#FEFC9F"/>
      <path d="M49.298,336.573 C49.613,347.098 47.978,356.939 46.051,366.739 C45.669,368.679 44.989,370.582 44.263,372.43 C39.224,385.252 29.22,391.192 17.937,388.119 C4.575,384.481 -1.973,373.924 0.522,359.915 C3.051,345.717 10.613,334.292 21.06,324.863 C25.944,320.455 31.804,317.045 37.495,313.638 C43.426,310.086 46.673,311.806 47.968,318.675 C49.113,324.744 49.598,330.872 49.298,336.573" fill="#6E4100"/>
      <path d="M427.493,317.456 C427.464,310.772 427.974,304.142 429.415,297.627 C430.486,292.783 433.616,291.051 437.872,293.279 C455.886,302.706 469.944,315.8 475.477,336.125 C479.947,352.543 473.416,365 458.89,368.624 C449.212,371.039 440.566,367.258 435.258,358.206 C430.134,349.47 429.554,339.569 428.258,329.887 C427.708,325.783 427.731,321.602 427.493,317.456" fill="#6E4100"/>
    </g>
    <path d="M73.396,209.623 C70.072,156.74 83.796,109.26 118.684,68.74 C130.861,54.598 145.946,43.972 162.496,35.36 C165.855,33.612 167.083,33.695 168.631,37.538 C179.511,64.542 198.668,82.535 227.111,90.067 C233.428,91.74 236.116,90.367 238.376,84.558 C239.571,81.951 241.723,82.946 243.525,83.369 C247.763,84.363 252.027,84.565 256.3,83.989 C262.724,83.124 267.648,79.842 271.036,74.289 C272.441,73.642 273.653,74.212 274.772,74.976 C292.902,87.345 313.33,92.716 334.866,94.734 C347.805,95.276 360.713,97.243 373.684,95.32 C375.833,95.002 377.991,94.81 380.098,95.605 C389.379,110.123 395.115,126.131 399.556,142.629 C405.366,164.21 408.861,186.058 405.961,208.506 C403.816,208.597 403.418,206.645 402.495,205.417 C397.136,198.287 390.338,193.354 381.543,191.373 C374.369,186.719 366.322,184.886 357.961,184.034 C353.733,183.604 349.905,183.973 347.922,188.522 C345.65,190.888 343.7,193.774 339.835,193.613 C337.002,186.851 330.825,186.512 324.86,185.984 C321.867,185.719 318.91,185.341 315.959,184.815 C312.339,184.17 312.466,182.411 314.46,180.05 C315.971,178.259 317.756,176.764 319.602,175.33 C322.108,173.383 324.48,171.255 326.362,168.705 C328.38,165.971 328.316,162.978 326.096,160.433 C323.866,157.877 321.103,158.203 318.412,159.879 C316.996,160.761 315.565,161.672 314.412,162.859 C307.565,169.909 299.898,176.087 292.996,183.074 C290.963,185.131 289.103,187.275 290.132,190.534 C291.218,193.974 294.04,194.846 297.127,195.225 C308.844,196.665 320.514,198.523 332.308,199.295 C333.473,199.371 334.64,199.402 335.713,199.93 C336.934,201.32 337.13,203.03 337.192,204.784 C330.57,207.907 330.509,208.148 334.855,214.299 C335.432,215.114 335.93,215.959 336.154,216.949 C335.822,227.719 338.116,237.691 344.403,246.688 C355.569,262.667 374.659,265.853 390.351,254.328 C392.782,252.542 394.464,249.344 398.147,249.543 C389.41,280.242 372.33,305.133 346.14,323.496 C325.843,337.727 302.888,345.277 278.602,348.944 C242.936,354.328 207.567,353.182 172.881,342.577 C139.212,332.284 112.841,312.442 94.8,281.881 C92.888,278.641 92.503,276.571 95.713,274.057 C99.566,271.04 101.693,266.538 104.422,262.57 C105.943,261.274 107.796,261.207 109.629,261.285 C128.291,262.084 149.549,238.399 141.154,216.35 C136.592,204.369 129.759,194.209 116.533,190.863 C101.949,187.172 90.533,193.068 81.334,204.194 C79.635,206.251 78.224,208.515 76.836,210.793 C76.332,211.621 75.731,212.727 74.63,212.516 C73.052,212.215 74.037,210.509 73.396,209.623" fill="#FEF8EA"/>
    <path d="M380.098,95.605 C370.074,98.291 359.817,98.239 349.705,97.031 C344.508,96.411 339.152,97.947 334.135,95.735 C335.63,93.868 337.777,94.404 339.702,94.311 C343.309,94.137 345.862,92.664 346.358,88.891 C346.77,85.76 344.098,82.747 340.237,82.178 C335.635,81.5 330.963,81.637 326.32,81.002 C306.872,78.343 289.287,71.615 274.411,58.459 C269.874,54.446 266.05,49.899 262.881,44.771 C261.83,43.071 260.904,41.283 259.322,39.983 C257.162,38.208 254.833,37.883 252.375,39.302 C250.078,40.627 249.271,42.726 249.644,45.254 C250.172,48.824 252.062,51.814 254.129,54.636 C258.173,60.157 262.572,65.37 267.988,69.645 C269.52,70.854 271.378,71.927 271.202,74.343 C269.899,80.629 263.423,85.148 254.909,85.538 C250.937,85.719 246.958,85.78 243.058,84.602 C241.565,84.151 239.941,83.145 238.376,84.559 C238.612,79.398 236.07,76.79 231.098,75.506 C207.238,69.346 191.508,54.04 182.317,31.524 C181.241,28.888 180.981,27.401 184.519,26.111 C245.879,3.719 319.964,22.287 363.014,71.166 C369.601,78.646 375.728,86.534 380.098,95.605" fill="#F1D7AC"/>
    <path d="M165.462,357.458 C214.863,371.666 263.845,371.65 313.382,357.533 C311.13,370.903 306.17,382.599 297.555,392.66 C287.326,404.606 273.908,410.763 258.729,413.281 C244.315,415.672 229.858,415.41 215.57,412.182 C187.778,405.903 170.045,386.629 165.462,357.458" fill="#FEFEFE"/>
    <path d="M398.147,249.543 C392.219,254.612 386.341,259.681 378.412,261.552 C365.335,264.639 352.047,259.691 344.214,248.744 C337.283,239.058 333.818,228.458 335.23,216.474 C337.669,215.837 339.258,217.634 341.141,218.562 C350.268,223.061 359.568,226.376 369.873,222.774 C382.612,218.321 387.984,205.881 382.56,193.436 C382.163,192.525 381.664,191.636 382.076,190.589 C393.184,192.367 400.252,199.53 405.961,208.505 C405.082,222.513 402.76,236.247 398.147,249.543" fill="#FFD5BA"/>
    <path d="M73.396,209.623 C74.187,210.42 74.404,213.21 76.064,209.945 C81.11,200.022 88.989,192.975 99.622,189.744 C114.058,185.358 127.709,191.019 136.63,204.362 C146.239,218.736 146.735,234.324 138.346,245.822 C129.9,257.397 119.153,263.919 104.422,262.57 C110.938,251.171 116.801,239.514 119.541,226.514 C121.671,216.411 119.362,214.131 109.039,216.107 C98.223,218.178 87.655,220.836 78.52,227.382 C76.387,228.91 75.614,227.934 75.355,225.885 C74.671,220.469 74.045,215.045 73.396,209.623" fill="#FFD5BA"/>
    <path d="M109.321,226.307 C105.605,240.295 99.271,252.098 91.78,263.334 C90.688,264.973 89.227,266.409 87.763,267.749 C82.393,272.664 77.41,273.223 72.563,269.577 C66.535,265.043 64.922,259.574 68.185,253.054 C74.626,240.184 85.855,233.156 98.974,228.688 C102.067,227.635 105.368,227.197 109.321,226.307" fill="#FEFEFE"/>
    <path d="M437.994,200.118 C437.786,203.976 437.391,207.941 436.026,211.711 C434.688,215.408 432.422,218.433 428.809,220.218 C426.564,221.328 423.653,222.862 421.784,221.728 C419.885,220.576 421.48,217.483 421.672,215.25 C422.522,205.33 423.396,195.394 422.83,185.445 C422.638,182.061 423.974,181.519 426.701,181.409 C431.468,181.217 434.63,183.225 436.185,187.753 C437.548,191.722 437.907,195.832 437.994,200.118" fill="#FEF8EA"/>
    <path d="M56.409,197.791 C56.988,204.571 57.399,211.372 58.214,218.124 C58.666,221.871 57.259,222.404 54.118,221.531 C48.943,220.094 45.226,216.994 43.49,211.928 C40.836,204.184 40.764,196.301 43.01,188.429 C43.757,185.811 45.055,183.539 47.655,182.265 C53.426,179.437 56.886,181.613 56.647,187.843 C56.52,191.148 56.625,194.462 56.625,197.772 C56.553,197.778 56.481,197.785 56.409,197.791" fill="#FEF8EA"/>
    <path d="M39.338,337.976 C39.428,347.001 38.07,355.862 36.148,364.64 C35.657,366.886 34.839,369.116 33.823,371.182 C30.804,377.318 26.246,379.747 20.645,378.448 C14,376.906 9.82,372.001 10.232,365.279 C11.127,350.668 19.097,339.856 29.839,330.83 C32.379,328.696 35.526,324.766 38.362,326.129 C40.572,327.192 39.163,332.215 39.325,335.48 C39.367,336.31 39.331,337.143 39.338,337.976" fill="#FEFEFE"/>
    <path d="M438.447,305.297 C453.156,314.278 463.424,325.846 466.632,342.647 C467.496,347.171 467.202,351.57 463.449,355.07 C456.018,362 447.354,360.663 443.162,351.429 C438.691,341.582 438.271,330.856 437.684,320.259 C437.42,315.495 437.436,310.69 438.447,305.297" fill="#FEFEFE"/>
    <path d="M282.834,311.722 C268.185,310.406 252.201,310.186 236.252,309.294 C230.093,308.95 224.391,310.333 218.666,312.099 C202.617,317.05 187.047,315.922 172.383,307.652 C160.031,300.686 155.293,289.142 158.546,275.416 C160.436,267.444 163.595,259.936 167.731,252.877 C174.45,241.408 184.69,235.181 197.821,235.773 C209.441,236.296 220.233,234.247 230.918,230.146 C244.602,224.895 257.671,226.248 269.935,234.439 C276.899,239.09 284.689,241.814 292.476,244.768 C306.505,250.092 316.844,259.653 319.066,275.117 C322.092,296.17 307.88,311.718 286.613,311.722 C285.78,311.723 284.947,311.722 282.834,311.722" fill="#6E4100"/>
    <path d="M236.16,165.371 C250.256,165.759 261.113,166.709 270.797,172.706 C280.866,178.942 278.994,186.827 272.172,192.617 C260.835,202.239 247.028,204.793 232.486,203.096 C225.016,202.224 217.754,200.145 211.791,195.307 C200.995,186.551 201.301,179.369 213.142,172.12 C221.116,167.238 229.791,164.75 236.16,165.371" fill="#FFD5BA"/>
    <path d="M271.202,74.343 C263.927,67.795 256.585,61.3 251.447,52.803 C250.25,50.825 248.901,48.81 248.305,46.625 C247.219,42.64 248.515,39.221 252.527,37.656 C256.371,36.156 259.895,37.138 261.964,40.887 C270.294,55.972 283.223,65.717 298.666,72.402 C310.343,77.457 322.686,79.943 335.383,80.659 C337.041,80.753 338.713,80.733 340.355,80.947 C345.354,81.598 348.315,84.824 347.937,89.084 C347.548,93.46 344.382,95.812 339.107,95.691 C337.45,95.653 335.792,95.717 334.135,95.735 C311.237,94.255 290.133,87.493 271.202,74.343" fill="#6E4100"/>
    <path d="M164.287,183.335 C159.451,178.813 155.335,175.01 151.271,171.154 C147.296,167.383 146.786,162.588 149.946,159.353 C153.105,156.12 157.441,156.331 161.424,160.009 C169.478,167.448 177.493,174.931 185.535,182.383 C188.145,184.802 189.681,187.505 188.411,191.217 C187.148,194.91 184.297,196.12 180.76,196.541 C170.372,197.777 159.992,199.083 149.607,200.345 C148.289,200.505 146.959,200.627 145.632,200.654 C141.006,200.746 137.719,198.025 137.337,193.845 C136.965,189.784 139.831,186.346 144.409,185.72 C150.657,184.865 156.932,184.207 164.287,183.335" fill="#6E4100"/>
    <path d="M335.956,200.109 C327.899,201.614 320.14,198.876 312.22,198.394 C306.756,198.061 301.33,197.115 295.884,196.47 C292.469,196.066 289.944,194.529 288.759,191.145 C287.619,187.892 288.738,185.254 291.076,183.061 C299.563,175.103 308.033,167.124 316.644,159.301 C320.082,156.179 324.563,156.421 327.373,159.433 C330.129,162.386 330.064,166.985 326.891,170.155 C322.591,174.45 318.079,178.532 313.062,183.269 C319.491,184.096 325.005,185.104 330.56,185.435 C336.039,185.762 339.272,188.137 340.177,193.572 C340.382,196.792 339.01,198.994 335.956,200.109" fill="#6E4100"/>
    <path d="M382.076,190.589 C387.818,197.519 387.442,204.976 383.627,212.491 C379.321,220.974 372.035,225.159 362.689,225.514 C352.481,225.901 343.546,222.03 335.229,216.473 C334.567,215.746 333.92,215.002 333.237,214.294 C331.501,212.493 329.728,210.767 330.738,207.848 C331.833,204.684 334.311,204.3 337.113,204.42 C339.271,204.008 340.382,205.701 341.781,206.776 C346.896,210.705 352.686,213.078 359.024,214.006 C365.462,214.949 371.326,211.756 373.775,206.238 C375.721,201.854 374.638,198.879 370.219,197.009 C366.512,195.441 362.597,194.805 358.559,194.872 C356.242,194.911 353.835,195.192 351.651,194.35 C349.101,193.366 346.024,192.543 346.966,188.601 C347.309,184.531 349.619,183.004 353.581,183.007 C363.774,183.014 373.623,184.127 382.076,190.589" fill="#6E4100"/>
    <path d="M346.966,188.601 C347.888,192.118 350.405,193.16 353.746,193.102 C358.236,193.023 362.728,193.149 367.073,194.447 C371.153,195.665 375.868,196.338 376.243,201.94 C376.579,206.947 372.213,212.834 367.264,214.547 C362.48,216.204 357.776,215.489 353.063,214.174 C346.813,212.429 341.753,208.777 337.113,204.42 C335.244,203.381 336.068,201.62 335.956,200.109 C337.363,197.93 338.77,195.751 340.177,193.572 C342.44,191.915 344.703,190.258 346.966,188.601" fill="#FEFEFE"/>
    <path d="M205.077,246.754 C213.95,247.784 222.286,245.283 230.25,241.95 C243.283,236.495 255.298,236.979 266.962,245.53 C273.01,249.964 280.14,252.496 287.354,254.586 C293.466,256.356 298.363,259.998 302.446,264.737 C310.478,274.058 310.466,285.756 302.513,295.167 C298.879,299.467 293.955,300.858 288.638,300.669 C276.011,300.219 263.387,299.636 250.774,298.891 C237.63,298.114 224.721,297.926 211.893,302.345 C201.092,306.066 190.123,304.019 179.882,299.25 C170.153,294.719 166.889,287.074 169.631,276.615 C170.987,271.445 173.153,266.585 175.406,261.771 C181.355,249.06 191.84,245.181 205.077,246.754" fill="#FEFEFE"/>
    <path d="M244.678,187.355 C244.341,190.27 242.585,191.957 239.465,191.997 C236.563,192.034 232.153,187.586 232.412,184.696 C232.7,181.493 234.523,179.492 237.963,179.609 C241.078,179.716 244.829,184.012 244.678,187.355" fill="#704401"/>
  </g>
</svg>
