<svg xmlns="http://www.w3.org/2000/svg" xmlns:xlink="http://www.w3.org/1999/xlink" width="500" zoomAndPan="magnify" viewBox="0 0 375 374.999991" height="500" preserveAspectRatio="xMidYMid meet" version="1.0"><defs><clipPath id="bca8d82c37"><path d="M 265 187.5 L 277 187.5 L 277 215 L 265 215 Z M 265 187.5 " clip-rule="nonzero"/></clipPath><clipPath id="94a032aeee"><path d="M 27.589844 80 L 337.339844 80 L 337.339844 295 L 27.589844 295 Z M 27.589844 80 " clip-rule="nonzero"/></clipPath></defs><path fill="#000000" d="M 335.976562 287.941406 C 333.027344 280.917969 327.457031 277.390625 321.234375 273.480469 C 314.515625 269.253906 308.042969 264.617188 301.824219 259.6875 C 289.089844 249.5625 277.046875 238.382812 266.628906 225.863281 C 262.207031 220.554688 254.554688 228.207031 259.027344 233.464844 C 259.519531 234.046875 260.03125 234.609375 260.535156 235.183594 C 259.34375 262.484375 261.941406 289.90625 265.988281 316.886719 C 266.613281 321.078125 273.347656 321.792969 275.117188 318.085938 C 277.667969 312.734375 280.371094 307.453125 283.25 302.269531 C 284.613281 299.816406 286.019531 297.382812 287.46875 294.976562 C 288.066406 293.984375 288.496094 293.125 288.914062 292.417969 C 292.882812 300.519531 297.132812 308.441406 301.8125 316.167969 C 304.351562 320.367188 306.976562 324.511719 309.683594 328.609375 C 311.945312 332.035156 314.148438 336.289062 317.722656 338.460938 C 318.457031 338.90625 319.679688 338.339844 319.574219 337.394531 C 319.136719 333.441406 316.742188 330.09375 314.890625 326.632812 C 312.574219 322.296875 310.335938 317.921875 308.191406 313.5 C 304.542969 305.972656 301.082031 298.339844 297.816406 290.628906 C 308.960938 291.617188 320.089844 293.046875 331.207031 294.210938 C 334.152344 294.515625 337.160156 290.757812 335.976562 287.941406 Z M 297.324219 280.636719 C 294.070312 280.289062 290.351562 279.300781 287.140625 280.339844 C 282.097656 281.96875 279.261719 288.945312 276.832031 293.09375 C 275.636719 295.132812 274.492188 297.199219 273.363281 299.269531 C 270.695312 280.273438 268.777344 261.203125 266.851562 242.117188 C 274.65625 250.257812 283.109375 257.78125 291.914062 264.796875 C 297.675781 269.390625 303.578125 273.804688 309.699219 277.890625 C 312.070312 279.480469 315.359375 281.070312 318.441406 282.925781 C 315.054688 282.5625 311.671875 282.191406 308.285156 281.824219 C 304.628906 281.429688 300.980469 281.035156 297.324219 280.636719 Z M 297.324219 280.636719 " fill-opacity="1" fill-rule="nonzero"/><g clip-path="url(#bca8d82c37)"><path fill="#000000" d="M 276.238281 210.019531 C 275.710938 205.945312 274.601562 201.984375 273.644531 197.992188 C 272.851562 194.671875 272.453125 190.667969 269.886719 188.242188 C 269.882812 188.253906 269.878906 188.261719 269.871094 188.277344 C 269.0625 187.5 267.625 187.445312 266.953125 188.617188 C 265.199219 191.703125 265.953125 195.574219 266.15625 199.003906 C 266.402344 203.085938 266.457031 207.214844 267.136719 211.253906 C 267.988281 216.347656 276.914062 215.214844 276.238281 210.019531 Z M 276.238281 210.019531 " fill-opacity="1" fill-rule="nonzero"/></g><path fill="#000000" d="M 232.621094 203.25 C 237.222656 207.796875 240.859375 213.34375 245.496094 217.878906 C 249.875 222.15625 255.949219 214.441406 250.632812 211.210938 C 245.332031 207.996094 239.53125 205.230469 235.058594 200.804688 C 233.472656 199.242188 231.03125 201.679688 232.621094 203.25 Z M 232.621094 203.25 " fill-opacity="1" fill-rule="nonzero"/><path fill="#000000" d="M 304.316406 203.121094 C 301.152344 202.832031 297.835938 205.53125 295.136719 206.980469 C 291.773438 208.792969 288.105469 210.378906 284.957031 212.503906 C 279.847656 215.949219 284.800781 224.335938 289.785156 220.769531 C 293.023438 218.449219 295.90625 215.535156 298.898438 212.902344 C 301.328125 210.765625 305.113281 208.558594 305.980469 205.308594 C 306.289062 204.144531 305.421875 203.226562 304.316406 203.121094 Z M 304.316406 203.121094 " fill-opacity="1" fill-rule="nonzero"/><path fill="#000000" d="M 298.078125 233.671875 C 291.917969 231.78125 289.953125 242.125 296.859375 242.683594 C 302.984375 243.179688 312.359375 244.535156 317.855469 241.121094 C 318.953125 240.4375 319.128906 238.605469 317.855469 237.96875 C 315 236.539062 311.691406 236.59375 308.574219 236.089844 C 305.015625 235.519531 301.515625 234.726562 298.078125 233.671875 Z M 298.078125 233.671875 " fill-opacity="1" fill-rule="nonzero"/><path fill="#000000" d="M 238.039062 262.742188 C 235.796875 265.101562 232.84375 267.722656 231.914062 270.933594 C 231.601562 272.011719 232.707031 273.300781 233.855469 272.875 C 236.855469 271.753906 239.144531 269.082031 241.558594 267.039062 C 244.429688 264.609375 247.421875 262.339844 250.503906 260.175781 C 254.570312 257.328125 250.078125 251.421875 246.320312 254.757812 C 243.453125 257.308594 240.679688 259.953125 238.039062 262.742188 Z M 238.039062 262.742188 " fill-opacity="1" fill-rule="nonzero"/><path fill="#000000" d="M 218.695312 239.960938 C 222.371094 241.125 226.402344 240.863281 230.226562 241.117188 C 234.5625 241.394531 238.894531 242.027344 243.230469 242.128906 C 248.195312 242.242188 248.15625 234.65625 243.230469 234.433594 C 238.609375 234.222656 233.902344 234.785156 229.300781 235.226562 C 225.550781 235.59375 221.8125 235.726562 218.34375 237.253906 C 217.101562 237.804688 217.597656 239.609375 218.695312 239.960938 Z M 218.695312 239.960938 " fill-opacity="1" fill-rule="nonzero"/><g clip-path="url(#94a032aeee)"><path fill="#ffffff" d="M 27.589844 80.484375 L 151.320312 80.390625 L 142.460938 92.601562 L 331.492188 93.164062 C 335.011719 93.835938 337.453125 96.917969 337.453125 100.386719 L 288.261719 180.269531 C 286.136719 183.730469 283.339844 187.402344 279.277344 187.402344 L 130.160156 187.402344 L 102.039062 239.667969 L 235.140625 251.597656 L 70.679688 251.597656 C 63.765625 251.597656 61.480469 245.527344 64.304688 240.574219 L 100.925781 176.671875 C 102.148438 174.296875 104.621094 172.671875 107.476562 172.671875 L 271.921875 172.671875 L 281.082031 158.160156 C 262.683594 157.109375 246.703125 156.535156 239.496094 166.347656 L 243.917969 156.027344 C 221.332031 154.734375 203.726562 153.941406 194.402344 166.347656 L 199.910156 153.5 C 174.039062 152.015625 157.429688 152.835938 148.488281 166.347656 L 155.101562 150.925781 L 86.011719 146.960938 L 156.808594 146.960938 L 165.71875 126.183594 L 68.292969 121.261719 L 167.828125 121.261719 L 176.808594 100.3125 L 128.953125 98.164062 L 134.566406 88.472656 Z M 288.160156 146.960938 L 297.085938 132.820312 C 271.59375 131.535156 261.042969 133.1875 251.355469 146.960938 Z M 247.808594 146.960938 L 254.792969 130.6875 C 226.605469 129.257812 215.433594 130.988281 206.261719 146.960938 Z M 202.714844 146.960938 L 210.65625 128.453125 C 180.128906 126.910156 170.609375 128.660156 160.347656 146.960938 Z M 304.386719 121.261719 L 313.734375 106.457031 C 287.585938 105.28125 277.085938 105.328125 267.070312 121.261719 Z M 258.824219 121.261719 L 266.097656 104.316406 C 246.347656 102.828125 231.144531 107.769531 221.980469 121.261719 Z M 213.742188 121.261719 L 221.859375 102.335938 C 192.808594 101.027344 184.410156 106.625 176.066406 121.261719 Z M 193.761719 258.316406 C 203.800781 258.316406 211.9375 266.46875 211.9375 276.519531 C 211.9375 286.578125 203.800781 294.734375 193.761719 294.734375 C 183.722656 294.734375 175.578125 286.578125 175.578125 276.519531 C 175.578125 266.46875 183.722656 258.316406 193.761719 258.316406 Z M 78.980469 258.316406 C 89.019531 258.316406 97.15625 266.46875 97.15625 276.519531 C 97.15625 286.578125 89.019531 294.734375 78.980469 294.734375 C 68.941406 294.734375 60.796875 286.578125 60.796875 276.519531 C 60.796875 266.46875 68.941406 258.316406 78.980469 258.316406 Z M 78.980469 258.316406 " fill-opacity="1" fill-rule="nonzero"/></g></svg>